# xmcd
#
# Track frame offsets:
#	150
#	17629
#	38237
#	60679
#	83924
#	105557
#	119935
#	162423
#	195744
#	202411
#	223291
#
# Disc length: 3372 seconds
#
# Revision: 1
# Processed by: cddbd v1.5.2PL0 Copyright (c) Steve Scherf et al.
# Submitted via: audiograbber 1.83.01
#
DISCID=ab0d2a0b
DTITLE=Grateful Dead - 70-01-17 Oregon State University, Corvallis OR
DYEAR=1900
DGENRE=
TTITLE0=Dire Wolf
TTITLE1=China Cat Sunflower
TTITLE2=I Know You Rider
TTITLE3=Hard To Handle
TTITLE4=Cumberland Blues
TTITLE5=Me and My Uncle
TTITLE6=Black Peter
TTITLE7=Good Lovin'
TTITLE8=Stage Banter
TTITLE9=Mason's Children
TTITLE10=High Time
EXTD=
EXTT0=
EXTT1=
EXTT2=
EXTT3=
EXTT4=
EXTT5=
EXTT6=
EXTT7=
EXTT8=
EXTT9=
EXTT10=
PLAYORDER=
